<svg width="281" height="34" viewBox="0 0 281 34" fill="none"
    xmlns="http://www.w3.org/2000/svg">
    <g clip-path="url(#clip0_32_2)">
        <path fill-rule="evenodd" clip-rule="evenodd" d="M28.524 24.766C27.4892 27.7537 25.3112 30.2087 22.468 31.592C18.9096 33.3078 14.987 34.1315 11.039 33.992C6.50567 33.992 3.39833 33.2386 1.717 31.732C0.0356669 30.2253 -0.408659 27.573 0.384008 23.775L12.614 22.315C12.0033 25.5816 12.27 27.215 13.414 27.215C13.894 27.2191 14.3606 27.0573 14.7351 26.757C15.1095 26.4568 15.3688 26.0364 15.469 25.567C15.6586 25.086 15.7336 24.5674 15.688 24.0524C15.6423 23.5374 15.4773 23.0401 15.206 22.6C14.2303 21.3503 12.9992 20.3232 11.595 19.587C8.83234 17.8923 6.98467 16.2924 6.05201 14.787C5.58237 13.9188 5.31124 12.9571 5.25815 11.9715C5.20507 10.9858 5.37134 10.0006 5.745 9.08701C7.803 3.02834 13.4907 -0.000697074 22.808 -3.04076e-05C27.1413 -3.04076e-05 30.1437 0.768976 31.815 2.30698C33.4863 3.84498 34.0017 6.21465 33.361 9.41599L21.58 10.876C22.0593 8.14267 21.726 6.77597 20.58 6.77597C20.1747 6.75412 19.7743 6.87358 19.4471 7.11392C19.12 7.35427 18.8863 7.70067 18.786 8.09402C18.6549 8.4321 18.619 8.79966 18.6823 9.15671C18.7456 9.51376 18.9057 9.84659 19.145 10.119C20.1278 11.2358 21.3082 12.1617 22.627 12.85C25.713 14.7647 27.6623 16.5067 28.475 18.076C29.433 19.8027 29.4483 22.0313 28.521 24.762L28.524 24.766ZM51.113 33.476H27.641L38.841 0.517975H62.235L59.755 7.81802H49.815L48.224 12.477H56.296L53.849 19.677H45.777L43.57 26.177H53.585L51.106 33.477L51.113 33.476ZM83.905 24.766C82.8702 27.7537 80.6922 30.2087 77.849 31.592C74.2906 33.3078 70.368 34.1315 66.42 33.992C61.8867 33.992 58.7793 33.2386 57.098 31.732C55.4167 30.2253 54.972 27.573 55.764 23.775L67.994 22.315C67.3827 25.5816 67.6493 27.215 68.794 27.215C69.274 27.2191 69.7406 27.0573 70.1151 26.757C70.4895 26.4568 70.7488 26.0364 70.849 25.567C71.0388 25.0861 71.1139 24.5675 71.0685 24.0525C71.023 23.5375 70.8581 23.0402 70.587 22.6C69.6113 21.3504 68.3802 20.3232 66.976 19.587C64.214 17.8923 62.3663 16.2924 61.433 14.787C60.9635 13.9187 60.6924 12.9571 60.6394 11.9715C60.5863 10.9858 60.7525 10.0007 61.126 9.08701C63.184 3.02834 68.8717 -0.000697074 78.189 -3.04076e-05C82.5223 -3.04076e-05 85.5247 0.768976 87.196 2.30698C88.8673 3.84498 89.3827 6.21465 88.742 9.41599L76.961 10.876C77.4403 8.14267 77.107 6.77597 75.961 6.77597C75.5558 6.75417 75.1555 6.87363 74.8286 7.11398C74.5016 7.35434 74.2681 7.70075 74.168 8.09402C74.0368 8.43209 74.0008 8.79963 74.0641 9.15671C74.1274 9.51378 74.2875 9.84665 74.527 10.119C75.5099 11.2356 76.6903 12.1615 78.009 12.85C81.095 14.7647 83.0443 16.5067 83.857 18.076C84.8143 19.8027 84.8293 22.0313 83.902 24.762L83.905 24.766ZM116.855 7.81601H110.724L102.007 33.476H88.552L97.269 7.81601H91.14L93.619 0.516022H119.329L116.85 7.81601H116.855Z" fill="#003770"/>
        <path fill-rule="evenodd" clip-rule="evenodd" d="M160.039 24.766C159.004 27.7536 156.826 30.2085 153.983 31.592C150.425 33.3077 146.502 34.1313 142.554 33.992C138.021 33.992 134.913 33.2386 133.232 31.732C131.551 30.2253 131.106 27.573 131.899 23.775L144.129 22.315C143.518 25.5816 143.785 27.215 144.929 27.215C145.409 27.2191 145.876 27.0573 146.25 26.757C146.625 26.4568 146.884 26.0364 146.984 25.567C147.174 25.086 147.249 24.5674 147.203 24.0524C147.158 23.5374 146.992 23.0401 146.721 22.6C145.746 21.3503 144.515 20.3231 143.111 19.587C140.349 17.8923 138.501 16.2924 137.568 14.787C137.099 13.9187 136.827 12.9571 136.774 11.9715C136.721 10.9858 136.887 10.0007 137.261 9.08701C139.32 3.02834 145.007 -0.000697074 154.324 -3.04076e-05C158.657 -3.04076e-05 161.66 0.768976 163.331 2.30698C165.002 3.84498 165.518 6.21465 164.877 9.41599L153.096 10.876C153.575 8.14267 153.242 6.77597 152.096 6.77597C151.691 6.75412 151.29 6.87358 150.963 7.11392C150.636 7.35427 150.402 7.70067 150.302 8.09402C150.171 8.4321 150.135 8.79966 150.198 9.15671C150.262 9.51376 150.422 9.84659 150.661 10.119C151.644 11.2358 152.824 12.1617 154.143 12.85C157.229 14.7647 159.178 16.5067 159.991 18.076C160.949 19.8027 160.964 22.0313 160.037 24.762L160.039 24.766ZM182.628 33.476H159.16L170.36 0.517975H193.753L191.274 7.81802H181.334L179.75 12.479H187.822L185.375 19.679H177.303L175.096 26.179H185.107L182.628 33.479V33.476ZM213.794 33.476H203.107L202.181 27.402C201.723 24.6624 201.465 21.8931 201.408 19.116C200.95 20.9053 200.134 23.5263 198.961 26.979L196.754 33.479H184.645L195.845 0.520966H207.205L207.848 4.56998C208.368 7.54344 208.696 10.5474 208.829 13.563C209.528 10.6478 210.38 7.77151 211.382 4.94601L212.882 0.519989H224.99L213.79 33.478L213.794 33.476ZM247.725 33.476H234.496L235.369 28.485H230.137L227.619 33.476H214.839L233.733 0.517975H251.222L247.722 33.476H247.725ZM236.489 21.894L236.84 20.194C237.178 18.4673 238.061 14.622 239.489 8.65799C238.028 12.0793 236.298 15.9247 234.3 20.194L233.5 21.894H236.489ZM278.116 7.81601H271.987L263.27 33.476H249.817L258.535 7.81601H252.407L254.886 0.516022H280.596L278.117 7.81601H278.116Z" fill="#003770"/>
    </g>
    <defs>
        <clipPath id="clip0_32_2">
            <rect width="280.594" height="33.994" fill="white"/>
        </clipPath>
    </defs>
</svg>
